<svg width="91" height="45" viewBox="0 0 91 45" fill="none" xmlns="http://www.w3.org/2000/svg">
<path d="M5.74814 10.5979V14.0501C6.64656 12.8018 7.8241 11.8117 9.28948 11.0972C10.7549 10.374 12.3336 10.0124 14.0345 10.0124C15.7354 10.0124 17.3055 10.331 18.7534 10.9767C20.2014 11.6223 21.4574 12.5091 22.5215 13.6369C23.5857 14.7647 24.4318 16.1077 25.0424 17.6487C25.6529 19.1898 25.9669 20.8686 25.9669 22.6765C25.9669 24.4844 25.6616 26.1115 25.0424 27.6612C24.4231 29.2022 23.5857 30.5452 22.5215 31.673C21.4574 32.8008 20.2014 33.7048 18.7534 34.3591C17.3055 35.0134 15.7354 35.3405 14.0345 35.3405C12.3336 35.3405 10.7549 35.0048 9.28948 34.3333C7.8241 33.6618 6.63784 32.6975 5.74814 31.4492V42.4138L0 45V10.5979H5.74814ZM20.1752 22.6679C20.1752 21.6176 19.9833 20.6447 19.5995 19.7322C19.2157 18.8282 18.7011 18.0362 18.0469 17.3646C17.3927 16.6931 16.6251 16.1594 15.7267 15.7633C14.8283 15.3673 13.8601 15.1779 12.8308 15.1779C11.8016 15.1779 10.8334 15.3759 9.93495 15.7633C9.03653 16.1508 8.26023 16.6931 7.61476 17.3646C6.96929 18.0362 6.45466 18.8282 6.06215 19.7322C5.67836 20.6361 5.48646 21.6176 5.48646 22.6679C5.48646 23.7182 5.67836 24.6996 6.06215 25.6036C6.44594 26.5076 6.96057 27.2996 7.61476 27.9625C8.26895 28.634 9.03653 29.1678 9.93495 29.5638C10.8334 29.9598 11.8016 30.1492 12.8308 30.1492C13.8601 30.1492 14.8283 29.9512 15.7267 29.5638C16.6251 29.1678 17.4014 28.634 18.0469 27.9625C18.6924 27.291 19.207 26.4989 19.5995 25.6036C19.9833 24.6996 20.1752 23.7182 20.1752 22.6679ZM35.5094 3.54697C35.5094 4.49397 35.1692 5.32045 34.4888 6.00918C33.8085 6.69791 32.945 7.04228 31.9157 7.04228C30.9475 7.04228 30.1189 6.69791 29.4211 6.00918C28.7233 5.32045 28.3744 4.49397 28.3744 3.54697C28.3744 2.59996 28.7233 1.72183 29.4211 1.0331C30.1189 0.344366 30.9475 0 31.9157 0C32.945 0 33.8085 0.352975 34.4888 1.05892C35.1692 1.76487 35.5094 2.59135 35.5094 3.54697ZM29.0634 34.7465V10.5979H34.8552V34.7465H29.0634ZM45.3397 0.241056V34.7465H39.5479V0.241056H45.3397ZM61.4676 10.0038C63.3342 10.0038 65.0613 10.331 66.6575 10.9939C68.2537 11.6482 69.6406 12.5435 70.8007 13.6799C71.9608 14.8163 72.8766 16.1508 73.5221 17.6918C74.1763 19.2414 74.499 20.8944 74.499 22.6679C74.499 24.4414 74.1763 26.1029 73.5221 27.6526C72.8766 29.1936 71.9695 30.5366 70.8007 31.6644C69.6319 32.8008 68.2537 33.6962 66.6575 34.3505C65.0613 35.0048 63.3255 35.3319 61.4676 35.3319C59.6097 35.3319 57.8739 35.0048 56.2777 34.3505C54.6815 33.6962 53.2946 32.8008 52.1345 31.6644C50.9657 30.528 50.0585 29.1936 49.4131 27.6526C48.7676 26.1115 48.4361 24.45 48.4361 22.6679C48.4361 20.8858 48.7589 19.2414 49.4131 17.6918C50.0673 16.1508 50.9657 14.8077 52.1345 13.6799C53.2946 12.5435 54.6815 11.6482 56.2777 10.9939C57.8739 10.3396 59.6097 10.0038 61.4676 10.0038ZM61.4676 15.2296C60.4383 15.2296 59.4789 15.4276 58.5979 15.815C57.7169 16.211 56.9493 16.7362 56.3039 17.3991C55.6497 18.0534 55.135 18.8454 54.7513 19.758C54.3675 20.6792 54.1756 21.652 54.1756 22.6679C54.1756 23.6838 54.3675 24.6996 54.7513 25.6036C55.135 26.5076 55.6497 27.2824 56.3039 27.9453C56.9493 28.5996 57.7169 29.1247 58.5979 29.5208C59.4789 29.9168 60.4383 30.1148 61.4676 30.1148C62.4968 30.1148 63.4563 29.9168 64.3373 29.5208C65.2183 29.1247 65.9859 28.5996 66.6313 27.9453C67.2768 27.291 67.7914 26.5076 68.1839 25.6036C68.5677 24.6996 68.7596 23.7182 68.7596 22.6679C68.7596 21.6176 68.5677 20.6792 68.1839 19.758C67.8001 18.8368 67.2855 18.0534 66.6313 17.3991C65.9771 16.7448 65.2183 16.2196 64.3373 15.815C63.4563 15.419 62.4968 15.2296 61.4676 15.2296ZM83.8932 3.45227V10.5979H86.9461H89.9989L87.8183 15.4276H83.8932V26.2665C83.8932 27.6181 84.1985 28.591 84.8178 29.2022C85.4371 29.8049 86.3965 30.1148 87.6875 30.1148C88.1498 30.1148 88.6295 30.0545 89.1093 29.9426C89.589 29.8221 90.0164 29.6413 90.3827 29.3744V34.4452C89.9117 34.7121 89.3186 34.9187 88.5859 35.0909C87.8532 35.2544 86.9897 35.3319 85.9866 35.3319C83.5181 35.3319 81.5992 34.626 80.221 33.2141C78.8428 31.8022 78.1538 29.8307 78.1538 27.2996V15.419H74.5078V10.5892H78.1538V3.45227H83.8932Z" fill="#262626"/>
</svg>
